<svg width="279" height="279" viewBox="0 0 279 279" fill="none" xmlns="http://www.w3.org/2000/svg">
<circle cx="139.15" cy="139.15" r="139.15" fill="white"/>
<path d="M232.852 36.5582C258.333 59.8989 276.436 94.0154 278.215 128.895C279.429 167.249 268.406 203.909 242.12 232.438C239.823 234.867 237.491 237.245 235.097 239.578C234.562 240.158 234.027 240.738 233.475 241.336C219.148 256.528 198.837 266.542 179.097 272.578C177.84 272.966 177.84 272.966 176.558 273.361C147.162 282.003 115.533 279.091 87.0966 268.578C86.7424 257.126 87.3494 246.757 90.0966 235.578C90.6714 233.188 91.2456 230.797 91.8192 228.406C92.7607 224.487 93.7084 220.569 94.671 216.655C94.9687 215.443 95.2664 214.23 95.5731 212.981C95.8421 211.893 96.111 210.804 96.3881 209.683C99.8862 194.352 99.4903 179.252 91.3349 165.539C85.9097 156.948 77.9796 151.842 68.0966 149.578C65.0882 149.111 62.1356 148.819 59.0966 148.578C59.4266 147.588 59.7566 146.598 60.0966 145.578C61.0402 145.431 61.0402 145.431 62.0028 145.281C62.8588 145.132 63.7147 144.982 64.5966 144.828C65.8495 144.619 65.8495 144.619 67.1278 144.406C74.2304 142.425 79.6476 138.684 85.0966 133.828C85.7054 133.298 86.3143 132.768 86.9416 132.222C90.1998 129.359 93.2965 126.413 96.2841 123.266C103.296 116.058 111.94 110.771 122.147 110.277C123.568 110.258 124.989 110.254 126.409 110.266C127.157 110.271 127.904 110.277 128.675 110.283C142.024 110.575 151.475 116.203 160.647 125.711C167.728 134 173.665 143.246 179.472 152.453C183.172 158.287 187.133 163.886 191.222 169.453C191.796 170.238 192.37 171.023 192.961 171.832C199.003 180.835 199.003 180.835 207.097 187.578C206.71 186.658 206.323 185.737 205.925 184.789C196.101 161.068 189.674 133.761 199.538 108.953C206.105 94.8146 215.893 84.8157 230.522 79.2579C234.721 78.1492 238.793 78.2486 243.097 78.5782C243.097 77.9182 243.097 77.2582 243.097 76.5782C242.127 76.6607 241.158 76.7432 240.159 76.8282C230.261 76.7884 220.516 69.1532 213.842 62.5033C210.765 59.3697 207.717 56.2088 204.686 53.0306C191.878 39.6527 177.37 29.8366 158.284 29.2657C142.122 29.6144 130.437 36.5621 119.097 47.5782C118.455 48.1467 117.813 48.7152 117.151 49.3009C109.554 56.2783 103.979 65.175 98.0966 73.5782C96.9208 75.2514 95.745 76.9246 94.5692 78.5978C90.5314 84.3536 86.5032 90.1161 82.4901 95.8893C69.008 115.276 54.2582 133.36 38.0966 150.578C37.1781 151.56 37.1781 151.56 36.2411 152.563C32.1532 156.796 27.6735 160.473 23.0888 164.156C20.9662 165.874 18.8709 167.606 16.7919 169.375C16.2481 169.836 15.7044 170.297 15.1442 170.772C13.604 172.081 12.067 173.394 10.5302 174.707C8.09658 176.578 8.09658 176.578 6.09658 176.578C5.44777 174.037 4.80245 171.496 4.15908 168.953C3.97668 168.24 3.79428 167.528 3.60635 166.793C3.4291 166.091 3.25185 165.388 3.06924 164.664C2.82572 163.706 2.82572 163.706 2.57729 162.728C-4.70783 130.147 4.07242 94.3256 21.1005 66.2774C23.0241 63.3148 25.0204 60.4356 27.0966 57.5782C27.6754 56.7751 28.2542 55.972 28.8505 55.1446C51.4609 25.4043 84.3176 6.93647 121.097 1.57822C122.261 1.38293 122.261 1.38293 123.448 1.18369C162.59 -4.48356 203.775 10.6703 232.852 36.5582Z" fill="#010101"/>
<circle cx="125.5" cy="135.5" r="12.5" fill="white"/>
<circle cx="157.5" cy="61.5" r="12.5" fill="black"/>
<circle cx="157.5" cy="61.5" r="2.5" fill="white"/>
<circle cx="125.5" cy="135.5" r="2.5" fill="black"/>
</svg>
